HIERARCHY
ROOT Hips
{
  OFFSET 54.366 98.2075 -3.47856
  CHANNELS 6 Xposition Yposition Zposition Zrotation Xrotation Yrotation
  JOINT Spine
  {
    OFFSET -0.000355721 21.3001 -0.016921
    CHANNELS 3 Zrotation Xrotation Yrotation
    JOINT LeftArm
    {
      OFFSET 13.5181 21.3012 0
      CHANNELS 3 Zrotation Xrotation Yrotation
      JOINT LeftForeArm
      {
        OFFSET 24.5783 0 0
        CHANNELS 3 Zrotation Xrotation Yrotation
        JOINT LeftHand
        {
          OFFSET 24.5783 0 0
          CHANNELS 3 Zrotation Xrotation Yrotation
          End Site
          {
            OFFSET 7.32568 1.52588e-05 0.0169305
          }
        }
      }
    }
    JOINT Head
    {
      OFFSET 0 27.4458 -0.00489235
      CHANNELS 3 Zrotation Xrotation Yrotation
      End Site
      {
        OFFSET 0 0 0
      }
    }
    JOINT RightArm
    {
      OFFSET -13.5174 21.3012 0
      CHANNELS 3 Zrotation Xrotation Yrotation
      JOINT RightForeArm
      {
        OFFSET -24.5783 0 0
        CHANNELS 3 Zrotation Xrotation Yrotation
        JOINT RightHand
        {
          OFFSET -24.5783 0 0
          CHANNELS 3 Zrotation Xrotation Yrotation
          End Site
          {
            OFFSET -7.32568 1.52588e-05 0.0169305
          }
        }
      }
    }
  }
  JOINT RightUpLeg
  {
    OFFSET -8.44614 -9.41038 0.835684
    CHANNELS 3 Zrotation Xrotation Yrotation
    JOINT RightLeg
    {
      OFFSET 0 -40.9639 0
      CHANNELS 3 Zrotation Xrotation Yrotation
      JOINT RightFoot
      {
        OFFSET 0 -40.9639 0
        CHANNELS 3 Zrotation Xrotation Yrotation
        End Site
        {
          OFFSET 0.50614 -9.67405 14.6709
        }
      }
    }
  }
  JOINT LeftUpLeg
  {
    OFFSET 8.44614 -9.41038 0.835684
    CHANNELS 3 Zrotation Xrotation Yrotation
    JOINT LeftLeg
    {
      OFFSET 0 -40.9639 0
      CHANNELS 3 Zrotation Xrotation Yrotation
      JOINT LeftFoot
      {
        OFFSET 0 -40.9639 0
        CHANNELS 3 Zrotation Xrotation Yrotation
        End Site
        {
          OFFSET -0.50614 -9.67405 14.6709
        }
      }
    }
  }
}
MOTION
Frames:	19
Frame Time:	0.0333333
55.9691 94.999 -0.389167 0.800024 -2.2257 -31.7672 -2.12486 12.8087 4.36064 -92.5787 43.6642 8.48816 35.9788 -37.3467 -89.9215 0.324005 -20.144 0.509046 -4.48169 -16.1073 11.6424 74.9723 50.3197 -3.05724 -36.7815 -35.8721 86.7076 -0.0622463 1.90735 -0.75284 -4.54148 -5.61268 -4.78834 0.709825 33.963 -1.02262 2.56352 -16.2823 -11.1172 8.16948 -20.8899 17.0135 -2.91216 42.1684 2.96033 -6.21026 -7.58814 14.5858 
55.8421 94.5513 -0.588712 0.931979 -3.83111 -34.7389 -1.23592 13.356 2.9587 -92.948 44.0738 8.62559 35.9949 -37.3611 -89.9308 0.325025 -20.415 0.51237 -6.43531 -14.249 14.4592 82.1725 49.6136 -12.197 -36.5199 -36.8169 88.5065 -0.0157276 2.50962 -0.741058 -5.74972 -6.23774 -3.30539 0.792411 36.6628 -1.28427 2.54788 -17.146 -10.075 7.73589 -19.3926 18.3582 -2.86382 42.8296 2.99153 -5.53886 -9.65039 15.2524 
55.667 94.1135 -0.910684 0.863461 -4.31271 -36.9234 0.226761 13.2599 1.1224 -93.0444 44.1916 8.45899 35.9593 -37.4953 -90.1713 0.319899 -20.1721 0.513003 -7.64844 -13.2661 17.2902 87.5181 48.0246 -19.2609 -36.2411 -37.7892 90.4427 0.00254138 3.04477 -0.720653 -5.57252 -7.58024 -1.46715 0.902615 39.0281 -1.52334 2.34006 -17.9399 -10.2046 8.42705 -19.4711 19.7737 -2.94443 44.5449 3.2366 -5.68377 -9.34014 15.7138 
55.5671 93.7566 -0.895916 0.438737 -4.93203 -38.5444 2.28207 13.4006 -0.8101 -93.7822 44.6499 8.60537 35.973 -37.4778 -90.1191 0.314133 -19.8569 0.511453 -9.75271 -11.9798 19.5333 91.4977 45.8562 -25.4572 -36.0851 -38.1659 91.2753 -0.00100498 4.01623 -0.70482 -5.3969 -7.92908 -0.215257 0.955212 40.8335 -1.68529 2.19437 -18.8668 -9.80696 9.02939 -19.1221 20.1545 -3.07128 46.2834 3.50958 -5.02394 -11.0982 14.3767 
55.4851 93.125 -0.949263 0.901579 -6.48379 -40.0865 2.11595 13.9154 -2.67166 -93.4857 44.975 8.24895 35.9878 -37.3945 -89.9349 0.319501 -20.0988 0.525053 -10.6248 -10.8903 21.6137 94.663 44.6894 -29.5074 -35.9116 -38.6507 92.2951 0.0073965 3.67496 -0.687315 -6.64356 -8.663 1.1507 1.1302 43.6445 -2.01858 1.83336 -19.8132 -10.5827 7.90808 -18.0399 20.9978 -2.98574 46.5996 3.44832 -4.66169 -12.0683 12.7927 
55.4609 92.6807 -0.945789 0.842798 -7.06265 -41.7039 3.27239 14.1526 -4.13875 -93.5144 45.4236 7.86238 36.0098 -37.3817 -89.8593 0.314088 -20.5628 0.544761 -11.1571 -9.66808 23.253 95.9273 43.6944 -32.3377 -35.6672 -39.2815 93.6471 0.0196131 4.05035 -0.661147 -6.62779 -9.47753 2.90974 1.26229 45.5542 -2.24262 1.48015 -20.5783 -11.3113 8.08898 -17.742 22.1535 -3.05815 47.8068 3.629 -4.39409 -12.9383 12.8434 
55.4182 92.3211 -0.881525 1.23533 -7.60567 -43.4143 3.43095 14.1113 -5.17146 -93.7202 45.3404 7.95151 36.0437 -37.2919 -89.6735 0.30565 -19.9712 0.539717 -11.8747 -8.37281 24.6795 97.5426 43.5795 -34.3938 -35.5435 -39.7099 94.5264 0.0187958 4.96683 -0.645792 -7.1196 -10.4801 4.52188 1.40042 47.2126 -2.48776 1.55934 -21.1664 -10.3836 7.93739 -17.519 23.6935 -3.09145 48.6113 3.7328 -4.30658 -13.2205 12.9456 
55.5248 92.1844 -0.711482 1.82031 -8.42526 -44.7585 3.14038 14.4778 -5.97835 -93.6342 45.8615 8.09222 36.0064 -37.4922 -90.0199 0.301478 -20.3461 0.540443 -12.136 -7.96209 25.7409 97.3387 43.4851 -33.5088 -35.5169 -39.7772 94.653 0.0163911 5.30809 -0.642485 -8.22728 -11.12 5.64241 1.51582 48.2637 -2.68104 1.77539 -21.2853 -9.45056 7.08331 -17.1994 24.8652 -3.05493 48.9037 3.71286 -4.28004 -13.2523 13.3003 
55.6623 92.0191 -0.540383 2.31195 -8.68011 -45.5352 3.34026 14.5992 -6.59607 -93.58 46.8381 8.12397 36.0521 -37.5128 -89.9994 0.294889 -19.8472 0.538742 -11.8034 -7.17241 25.5233 96.1068 43.6186 -31.563 -35.5255 -39.6982 94.5366 0.00591588 5.65336 -0.64324 -8.88322 -12.1046 6.11084 1.66022 49.3517 -2.90005 1.59052 -21.9052 -9.65049 6.65432 -17.2035 25.3803 -3.05682 49.1979 3.73211 -4.28201 -13.2966 12.6874 
55.8877 91.8733 -0.352427 2.70122 -8.68498 -46.3959 3.53002 14.8652 -6.63714 -93.1584 47.5398 8.06891 36.0494 -37.5526 -90.065 0.30401 -20.0821 0.540091 -11.684 -7.43412 25.4953 94.3155 44.1523 -28.9409 -35.4867 -39.8273 94.7534 0.024078 5.76909 -0.645733 -9.28243 -13.0178 6.83404 1.76131 50.0898 -3.07337 1.56936 -22.588 -9.09321 6.32118 -17.4964 25.796 -3.09594 49.4059 3.78864 -4.01741 -14.1576 12.5356 
56.1931 91.7173 -0.167386 3.17263 -8.59401 -47.0225 3.48043 15.4112 -6.24221 -92.8815 48.6118 7.58218 36.0979 -37.4908 -89.8997 0.315656 -19.8985 0.540469 -11.2329 -7.65163 25.0365 91.1527 44.8086 -24.2697 -35.5886 -39.4979 94.0572 0.0201284 6.33617 -0.64933 -9.76094 -13.7856 7.31663 1.83121 50.3747 -3.16963 1.71601 -22.4239 -8.70692 5.9057 -17.5963 26.1681 -3.06049 49.1114 3.74262 -3.86729 -14.7636 11.8026 
56.5254 91.9794 0.284455 3.57565 -8.03107 -47.1737 4.16405 15.4121 -6.39001 -93.4657 48.4562 7.61105 36.1148 -37.4988 -89.9156 0.298608 -19.598 0.540856 -11.3766 -7.86741 24.4561 86.9343 46.0318 -19.5631 -35.6897 -39.196 93.4135 0.0173322 6.48482 -0.651567 -10.3021 -14.2733 6.87743 1.81035 49.6781 -3.12392 1.87331 -21.8973 -8.55396 5.70054 -18.5927 26.4454 -3.15992 49.3322 3.82138 -4.09161 -13.7687 13.8094 
56.9374 92.162 0.487492 3.50783 -7.4536 -46.788 4.58177 16.4531 -6.18852 -93.1728 48.7198 6.90794 36.1097 -37.5451 -89.9894 0.299908 -19.4958 0.542253 -11.6815 -8.58243 23.0954 81.2161 46.6358 -11.8222 -35.8375 -38.7558 92.4769 0.006594 6.86791 -0.651822 -10.2375 -14.3382 6.31708 1.74289 48.9097 -3.01413 2.14856 -21.2008 -8.01537 5.92203 -19.3203 26.0848 -3.23234 49.3523 3.88056 -4.22235 -13.367 14.0386 
57.4035 92.2788 0.722197 3.77717 -6.9405 -45.6042 4.42702 17.1692 -5.9003 -93.0312 49.173 6.56471 36.1616 -37.5579 -89.9711 0.282489 -19.6671 0.544844 -10.8249 -9.52392 21.0426 74.263 47.1543 -3.595 -35.9687 -38.2944 91.5342 0.0180078 6.96618 -0.646696 -10.7712 -14.4679 4.81956 1.72821 48.3162 -2.98058 2.26786 -20.8315 -7.83218 5.69306 -19.9799 25.5662 -3.23864 48.9968 3.84559 -4.33325 -13.0893 13.1062 
57.8382 92.5399 0.8738 3.90215 -5.3592 -44.7817 4.46796 17.3488 -4.90292 -92.9723 49.2286 6.11663 36.1738 -37.5305 -89.9059 0.301153 -19.7596 0.547385 -10.3674 -9.84639 18.4703 66.5127 47.415 5.58044 -36.1825 -37.5957 90.1175 0.00272664 7.06578 -0.639303 -10.1029 -15.1558 3.97592 1.67263 47.1742 -2.84156 2.26495 -20.0717 -8.55221 6.59698 -21.645 25.4775 -3.37683 48.8725 3.96171 -4.65306 -12.1186 13.3701 
58.2569 92.9366 1.12265 3.55833 -3.9981 -42.4662 4.71763 17.7683 -4.19561 -92.6697 49.8615 5.50598 36.2363 -37.4381 -89.7002 0.295018 -20.1292 0.551046 -8.90158 -10.2943 15.6327 57.921 45.0783 15.9335 -36.5108 -36.1633 87.4053 -0.0324024 7.06586 -0.637367 -9.66639 -14.457 1.77405 1.52152 45.3361 -2.57369 2.40331 -19.1119 -8.86501 6.97948 -22.8697 23.9275 -3.4285 48.3657 3.95157 -5.00859 -10.9741 13.058 
58.5495 93.3889 1.47154 3.14285 -2.67315 -38.9279 4.70933 17.7947 -3.97385 -92.5317 50.6077 5.45942 36.2942 -37.3478 -89.4917 0.292608 -19.586 0.552814 -6.74258 -10.2474 11.8882 51.4733 41.9617 23.1155 -36.6834 -34.9887 85.3416 -0.0560696 7.79911 -0.615477 -9.09946 -13.0392 -0.765828 1.32947 43.1756 -2.26991 2.37717 -18.9347 -9.04826 6.98914 -23.7725 21.8675 -3.40063 47.4107 3.82147 -5.41185 -9.43031 11.9329 
58.8382 93.6618 1.72746 3.32518 -1.94626 -34.5791 3.39855 18.292 -3.596 -91.665 51.7737 4.58994 36.4055 -37.1853 -89.0973 0.286729 -19.4139 0.569397 -4.32036 -10.6915 7.55448 46.0428 37.4139 30.2213 -36.8737 -33.1017 82.1612 -0.0981034 5.48259 -0.617615 -9.417 -11.6018 -3.70133 1.19938 41.271 -2.0341 2.17466 -18.4649 -10.688 5.58288 -24.4035 18.5623 -3.30734 46.2271 3.57955 -5.42085 -8.70973 9.73354 
58.9976 94.2825 1.95155 2.14778 0.158167 -30.8982 3.97952 18.555 -2.10477 -90.9032 52.866 3.56212 36.4347 -37.2027 -89.0927 0.299918 -20.056 0.569851 -2.96961 -11.4438 2.08867 40.9549 31.3843 36.2848 -36.9274 -30.374 78.0758 -0.16909 4.0874 -0.607235 -7.09544 -10.3245 -5.61901 1.00081 38.0768 -1.60334 2.09365 -17.2614 -12.6741 6.61723 -25.9474 16.5349 -3.34241 45.1885 3.51347 -5.90381 -6.54562 9.43061 
